ply
format ascii 1.0
element vertex 39
property float x
property float y
property float z
property uchar blue
property uchar green
property uchar red
end_header
-7.184503 7.047840 19.111636 77 87 65
-8.712592 0.668011 26.244654 61 67 47
-6.688052 6.667240 19.745843 149 154 146
-6.527210 6.846899 20.413224 151 154 145
-7.269971 5.898252 23.739982 94 105 83
-0.303822 -1.484831 -1.934415 50 55 34
0.343716 -1.118862 -3.111635 50 63 85
0.443243 -0.660199 -3.253957 173 188 227
0.474469 -1.050403 -3.085033 120 138 173
0.623784 -0.018918 -3.350836 145 160 193
0.634306 -1.105997 -3.049134 53 66 88
0.642791 -0.065282 -3.398784 63 77 109
0.733683 -1.045676 -3.202042 201 215 247
0.867859 -0.393771 -3.458059 141 153 189
0.916643 -0.207791 -3.561193 102 117 167
0.949632 -0.370096 -3.476327 181 197 230
0.966057 -0.126614 -3.543015 123 132 180
0.982987 -0.080115 -3.489051 53 61 121
1.014532 -0.684045 -3.600893 226 242 255
1.044254 -0.392888 -3.504234 186 201 240
1.061406 -1.124020 -3.343708 188 204 243
1.073576 -2.268396 -3.306696 38 49 64
1.081560 -0.009527 -3.383582 190 192 250
1.093195 -0.396940 -3.437931 177 189 230
1.158932 -2.240901 -3.180991 124 142 172
1.144165 -0.515541 -3.520650 51 64 97
1.210241 -0.407050 -3.386861 103 121 166
1.220331 -0.408015 -3.354568 103 121 166
1.220331 -0.408015 -3.354568 103 121 166
1.383880 -2.942098 -2.748966 32 37 20
1.304748 -0.116062 -3.426472 152 167 206
1.453420 -1.114399 -3.098095 134 143 167
1.445102 -1.556054 -3.317462 183 198 228
1.560649 -1.132799 -3.090621 49 58 72
1.572115 -1.020591 -3.076381 166 177 208
1.549981 -1.285113 -3.212109 188 201 234
1.729600 -1.105932 -3.172053 47 61 87
1.729600 -1.105932 -3.172053 47 61 87
2.055364 0.834630 -1.652962 15 30 33
